<?xml version="1.0" encoding="UTF-8" standalone="no"?>
<svg
   version="1.1"
   id="Layer_1"
   x="0px"
   y="0px"
   width="267.57712"
   height="208.81798"
   viewBox="0 0 267.57712 208.81798"
   enable-background="new 0 0 230 24.673"
   xml:space="preserve"
   sodipodi:docname="logo.svg"
   inkscape:export-filename="logo.svg"
   inkscape:export-xdpi="759.08527"
   inkscape:export-ydpi="759.08527"
   inkscape:version="1.4.2 (ebf0e940d0, 2025-05-08)"
   xmlns:inkscape="http://www.inkscape.org/namespaces/inkscape"
   xmlns:sodipodi="http://sodipodi.sourceforge.net/DTD/sodipodi-0.dtd"
   xmlns="http://www.w3.org/2000/svg"
   xmlns:svg="http://www.w3.org/2000/svg"><defs
   id="defs25">
	
	
	
	
	
	
	
	
	
	
	
	
	
	
	

		
		
		
		
		
	</defs><sodipodi:namedview
   id="namedview25"
   pagecolor="#aaaaaa"
   bordercolor="#000000"
   borderopacity="0.25"
   inkscape:showpageshadow="2"
   inkscape:pageopacity="0.0"
   inkscape:pagecheckerboard="0"
   inkscape:deskcolor="#d1d1d1"
   inkscape:export-bgcolor="#adadad00"
   inkscape:zoom="3.8529634"
   inkscape:cx="161.30441"
   inkscape:cy="111.60241"
   inkscape:window-width="5120"
   inkscape:window-height="1371"
   inkscape:window-x="0"
   inkscape:window-y="0"
   inkscape:window-maximized="1"
   inkscape:current-layer="Layer_1" />
<g
   id="g25"
   inkscape:export-filename="logo.svg"
   inkscape:export-xdpi="910.90234"
   inkscape:export-ydpi="910.90234"
   transform="scale(8.4630776)"><path
     d="m 15.806,9.873 12.366,3.07 c 2.152,-0.84 3.445,-1.911 3.445,-3.07 V 4.935 C 31.617,2.213 24.537,0 15.806,0 7.076,0 0,2.213 0,4.935 v 4.938 c 0,2.723 7.076,4.933 15.806,4.933 z"
     id="path17"
     fill="#ffffff" /><path
     d="M 28.171,17.879 15.805,14.806 v 4.934 l 12.366,3.074 c 2.153,-0.844 3.446,-1.911 3.446,-3.074 v -4.934 c 10e-4,1.163 -1.293,2.23 -3.446,3.073"
     id="path18"
     fill="#ffffff" /><path
     d="m 0,14.806 v 4.935 c 0,2.724 7.076,4.933 15.806,4.933 V 19.741 C 7.076,19.741 0,17.53 0,14.806"
     id="path19"
     fill="#ffffff" /></g>
</svg>
